<?xml version="1.0" standalone="no"?>
<!DOCTYPE svg PUBLIC "-//W3C//DTD SVG 20010904//EN"
 "http://www.w3.org/TR/2001/REC-SVG-20010904/DTD/svg10.dtd">
<svg version="1.0" xmlns="http://www.w3.org/2000/svg"
 width="512.000000pt" height="512.000000pt" viewBox="0 0 512.000000 512.000000"
 preserveAspectRatio="xMidYMid meet">
<metadata>
Created by potrace 1.14, written by Peter Selinger 2001-2017
</metadata>
<g transform="translate(0.000000,512.000000) scale(0.100000,-0.100000)"
fill="#000000" stroke="none">
<path d="M2172 5055 c-29 -35 -52 -66 -52 -68 0 -2 48 -43 106 -91 58 -49 103
-91 99 -94 -6 -6 -7 -7 -81 -16 -235 -28 -503 -110 -739 -227 -117 -57 -310
-173 -374 -224 -222 -178 -344 -300 -485 -485 -186 -245 -345 -575 -412 -859
-9 -37 -18 -75 -20 -86 -3 -11 -7 -33 -10 -50 -3 -16 -9 -51 -14 -77 -30 -148
-33 -603 -5 -708 2 -8 7 -35 10 -60 48 -345 221 -749 449 -1050 125 -164 307
-349 455 -460 18 -14 45 -34 59 -45 72 -55 216 -141 330 -199 223 -112 474
-192 722 -230 222 -34 591 -26 815 18 719 142 1335 603 1670 1250 35 67 73
146 85 176 12 30 28 69 35 85 30 69 96 302 110 385 7 44 17 99 21 125 8 44 17
174 18 255 l1 84 -78 1 c-43 0 -81 -3 -84 -8 -3 -5 -7 -50 -9 -100 -3 -87 -9
-150 -19 -207 -2 -14 -7 -43 -10 -65 -3 -22 -17 -89 -32 -149 -152 -639 -602
-1195 -1203 -1485 -69 -34 -117 -54 -155 -67 -5 -2 -46 -16 -91 -32 -86 -31
-223 -67 -288 -77 -21 -3 -41 -7 -45 -9 -6 -4 -48 -10 -161 -23 -86 -10 -356
-10 -450 0 -528 57 -1017 295 -1380 673 -47 49 -103 112 -125 139 -22 28 -43
52 -46 55 -24 20 -175 267 -220 360 -95 193 -181 456 -204 620 -3 25 -8 52
-10 60 -17 66 -25 388 -12 520 36 361 153 702 343 997 190 296 471 563 769
733 168 96 434 202 589 235 11 2 32 6 46 9 14 3 36 8 50 11 47 10 67 13 121
20 30 3 67 8 84 12 l29 6 -29 -39 c-16 -22 -32 -41 -36 -44 -3 -3 -36 -41 -73
-85 l-66 -80 43 -38 c23 -22 53 -46 66 -55 23 -15 25 -15 48 14 14 16 44 52
68 79 23 28 70 84 104 125 34 41 70 84 79 95 9 11 29 35 45 53 32 40 36 89 8
119 -10 11 -99 87 -197 169 -99 82 -185 154 -192 161 -7 7 -15 13 -16 13 -1 0
-26 -29 -54 -65z"/>
<path d="M2819 4791 c0 -3 -2 -13 -3 -21 -2 -8 -6 -45 -10 -81 -4 -49 -3 -66
7 -66 22 -1 112 -14 129 -19 18 -5 21 1 39 94 6 34 9 65 5 69 -8 9 -166 31
-167 24z"/>
<path d="M3166 4722 c-6 -11 -36 -128 -36 -144 0 -16 140 -61 152 -50 13 13
57 151 50 156 -8 5 -147 46 -155 46 -3 0 -8 -3 -11 -8z"/>
<path d="M3474 4546 c-19 -41 -34 -77 -34 -81 0 -3 30 -20 68 -37 37 -17 70
-32 74 -35 7 -4 78 128 78 145 0 4 -34 24 -76 45 l-75 37 -35 -74z"/>
<path d="M3778 4385 c-21 -35 -38 -68 -38 -73 0 -10 128 -97 134 -91 1 2 24
34 49 70 l47 66 -70 47 c-38 25 -73 46 -77 46 -5 0 -25 -29 -45 -65z"/>
<path d="M4052 4178 l-50 -63 57 -52 c31 -29 61 -52 66 -51 17 1 114 113 107
123 -15 21 -112 105 -121 105 -5 0 -32 -28 -59 -62z"/>
<path d="M1585 4030 c-45 -10 -71 -27 -102 -67 -27 -35 -28 -42 -31 -162 -2
-73 1 -141 7 -162 15 -49 66 -98 119 -112 l42 -11 1 -141 c0 -176 4 -212 29
-277 31 -82 74 -136 189 -235 58 -51 120 -105 136 -120 17 -16 62 -55 100 -88
39 -33 72 -62 75 -65 3 -3 40 -36 83 -73 76 -68 77 -70 76 -115 l0 -47 -225
-195 c-123 -107 -239 -208 -257 -223 -124 -108 -177 -186 -197 -296 -5 -29
-10 -121 -10 -202 0 -82 -3 -149 -7 -150 -60 -6 -117 -45 -146 -100 -15 -29
-17 -55 -15 -170 3 -131 4 -137 31 -172 59 -77 -23 -72 1062 -74 570 0 985 3
1007 8 47 12 97 54 115 97 20 49 20 257 -1 303 -30 68 -75 101 -148 108 -5 1
-8 74 -8 164 0 263 -29 329 -210 488 -47 40 -87 76 -90 79 -3 3 -39 34 -80 70
-41 36 -77 67 -80 70 -3 3 -36 32 -75 65 -150 128 -152 131 -152 181 0 45 0
45 111 142 380 333 452 397 479 431 78 97 97 171 97 376 l0 161 46 12 c50 14
89 49 111 101 18 42 20 252 3 297 -14 36 -46 71 -85 92 -27 15 -121 17 -1000
17 -533 1 -983 -2 -1000 -5z m1923 -252 l3 -86 -946 0 -945 0 0 86 0 87 942 0
943 -1 3 -86z m-169 -415 c-1 -128 -5 -167 -20 -207 -10 -27 -24 -53 -31 -58
-7 -4 -335 -8 -729 -8 l-715 0 -24 48 c-22 43 -24 60 -26 215 l-2 167 774 0
773 0 0 -157z m-249 -447 c0 -2 -46 -44 -102 -92 -57 -49 -121 -105 -143 -125
-22 -20 -63 -56 -91 -80 -83 -72 -98 -100 -103 -192 -6 -138 4 -154 204 -327
61 -52 115 -99 121 -105 6 -5 22 -19 35 -31 244 -211 276 -241 301 -293 20
-41 23 -64 26 -213 l3 -168 -775 0 -775 0 3 168 c4 236 -14 208 325 505 152
133 288 252 303 265 40 35 58 92 58 177 0 119 -9 133 -193 292 -89 78 -182
160 -206 182 l-44 41 526 0 c290 0 527 -2 527 -4z m420 -1885 l0 -86 -942 0
-943 0 -3 74 c-2 41 -1 79 1 86 4 8 248 11 946 11 l941 0 0 -85z"/>
<path d="M2482 2061 l3 -86 83 0 82 -1 0 86 0 87 -85 0 -86 0 3 -86z"/>
<path d="M2484 1801 c-2 -2 -4 -42 -4 -88 l0 -83 85 0 85 0 0 88 0 87 -81 0
c-44 0 -83 -2 -85 -4z"/>
<path d="M4301 3941 l-65 -58 53 -61 c33 -38 58 -59 65 -54 39 24 116 88 116
95 0 7 -100 138 -104 137 -1 0 -30 -26 -65 -59z"/>
<path d="M4515 3674 c-27 -19 -56 -39 -64 -43 -11 -7 -5 -23 29 -80 l42 -71
67 36 c36 20 70 40 74 44 10 9 -73 150 -88 149 -5 0 -32 -16 -60 -35z"/>
<path d="M4670 3368 c-36 -16 -66 -31 -68 -33 -1 -1 7 -27 19 -56 11 -30 25
-64 30 -76 l8 -23 78 29 c50 19 77 34 75 43 -9 42 -57 148 -66 147 -6 0 -40
-14 -76 -31z"/>
<path d="M4800 3049 c-36 -10 -70 -21 -77 -23 -8 -3 -6 -27 9 -84 l20 -79 81
17 c92 18 87 8 61 123 -9 37 -19 67 -23 66 -3 0 -35 -9 -71 -20z"/>
<path d="M4890 2714 c-8 -1 -37 -6 -63 -9 l-48 -6 5 -42 c2 -23 5 -59 5 -80
l1 -39 88 4 87 4 -3 50 c-2 27 -5 58 -7 69 -2 11 -4 28 -4 38 -1 16 -20 20
-61 11z"/>
</g>
</svg>
